<svg xmlns="http://www.w3.org/2000/svg" viewBox="0 13.850000381469727 244.75 45.349998474121094" data-asc="0.984" width="244.75" height="45.349998474121094"><defs/><g fill="#905eac"><g transform="translate(0, 0)"><path d="M0 49.20L0 43.90L4.70 43.90L4.70 19.50L0 19.50L0 14.20L17.90 14.20Q21.05 14.20 23.43 15.27Q25.80 16.35 27.13 18.33Q28.45 20.30 28.45 23.05L28.45 23.50Q28.45 25.90 27.55 27.45Q26.65 29 25.40 29.85Q24.15 30.70 23 31.05L23 31.90Q24.15 32.20 25.48 33.03Q26.80 33.85 27.73 35.43Q28.65 37 28.65 39.50L28.65 40Q28.65 42.85 27.28 44.93Q25.90 47 23.53 48.10Q21.15 49.20 18.05 49.20L0 49.20M10.70 43.75L17.35 43.75Q19.75 43.75 21.18 42.58Q22.60 41.40 22.60 39.25L22.60 38.80Q22.60 36.65 21.20 35.48Q19.80 34.30 17.35 34.30L10.70 34.30L10.70 43.75M10.70 28.85L17.30 28.85Q19.60 28.85 21.03 27.70Q22.45 26.55 22.45 24.50L22.45 24Q22.45 21.95 21.03 20.80Q19.60 19.65 17.30 19.65L10.70 19.65L10.70 28.85ZM34.50 49.20L34.50 24.50L40.25 24.50L40.25 49.20L34.50 49.20M37.35 21.35Q35.80 21.35 34.67 20.33Q33.55 19.30 33.55 17.60Q33.55 15.90 34.67 14.88Q35.80 13.85 37.35 13.85Q39 13.85 40.07 14.88Q41.15 15.90 41.15 17.60Q41.15 19.30 40.07 20.33Q39 21.35 37.35 21.35ZM56.95 49.20Q54.55 49.20 53.13 47.78Q51.70 46.35 51.70 43.90L51.70 29.25L45.25 29.25L45.25 24.50L51.70 24.50L51.70 16.55L57.45 16.55L57.45 24.50L64.55 24.50L64.55 29.25L57.45 29.25L57.45 42.95Q57.45 44.45 58.85 44.45L63.80 44.45L63.80 49.20L56.95 49.20ZM80.60 49.90Q75.80 49.90 72.70 47.80Q69.60 45.70 68.95 41.65L74.25 40.30Q74.60 42.20 75.50 43.30Q76.40 44.40 77.72 44.85Q79.05 45.30 80.60 45.30Q82.95 45.30 84.13 44.45Q85.30 43.60 85.30 42.30Q85.30 40.95 84.17 40.30Q83.05 39.65 80.75 39.20L79.20 38.95Q76.65 38.45 74.55 37.58Q72.45 36.70 71.17 35.18Q69.90 33.65 69.90 31.30Q69.90 27.70 72.58 25.75Q75.25 23.80 79.60 23.80Q83.75 23.80 86.45 25.65Q89.15 27.50 89.95 30.60L84.65 32.20Q84.25 30.10 82.90 29.23Q81.55 28.35 79.60 28.35Q77.60 28.35 76.53 29.05Q75.45 29.75 75.45 31.05Q75.45 32.35 76.55 33Q77.65 33.65 79.50 33.95L81.05 34.25Q83.80 34.75 86.03 35.55Q88.25 36.35 89.55 37.85Q90.85 39.35 90.85 41.90Q90.85 45.75 88.08 47.83Q85.30 49.90 80.60 49.90ZM100.45 49.20L100.45 29.25L93.85 29.25L93.85 24.50L100.45 24.50L100.45 19.50Q100.45 17.05 101.88 15.63Q103.30 14.20 105.65 14.20L112.05 14.20L112.05 18.95L107.55 18.95Q106.15 18.95 106.15 20.45L106.15 24.50L112.95 24.50L112.95 29.25L106.15 29.25L106.15 49.20L100.45 49.20ZM118 49.20L118 14.20L123.75 14.20L123.75 49.20L118 49.20ZM131.05 49.20L131.05 24.50L136.80 24.50L136.80 49.20L131.05 49.20M133.90 21.35Q132.35 21.35 131.22 20.33Q130.10 19.30 130.10 17.60Q130.10 15.90 131.22 14.88Q132.35 13.85 133.90 13.85Q135.55 13.85 136.63 14.88Q137.70 15.90 137.70 17.60Q137.70 19.30 136.63 20.33Q135.55 21.35 133.90 21.35ZM144.10 59.20L144.10 24.50L149.75 24.50L149.75 27.75L150.60 27.75Q151.45 26.20 153.32 25Q155.20 23.80 158.70 23.80Q161.70 23.80 164.27 25.28Q166.85 26.75 168.40 29.60Q169.95 32.45 169.95 36.45L169.95 37.25Q169.95 41.25 168.40 44.10Q166.85 46.95 164.30 48.43Q161.75 49.90 158.70 49.90Q156.35 49.90 154.77 49.35Q153.20 48.80 152.22 47.90Q151.25 47 150.70 46.10L149.85 46.10L149.85 59.20L144.10 59.20M157 44.90Q160.15 44.90 162.17 42.88Q164.20 40.85 164.20 37.10L164.20 36.60Q164.20 32.80 162.15 30.80Q160.10 28.80 157 28.80Q153.90 28.80 151.82 30.80Q149.75 32.80 149.75 36.60L149.75 37.10Q149.75 40.85 151.82 42.88Q153.90 44.90 157 44.90ZM176.05 59.20L176.05 24.50L181.70 24.50L181.70 27.75L182.55 27.75Q183.40 26.20 185.27 25Q187.15 23.80 190.65 23.80Q193.65 23.80 196.22 25.28Q198.80 26.75 200.35 29.60Q201.90 32.45 201.90 36.45L201.90 37.25Q201.90 41.25 200.35 44.10Q198.80 46.95 196.25 48.43Q193.70 49.90 190.65 49.90Q188.30 49.90 186.72 49.35Q185.15 48.80 184.17 47.90Q183.20 47 182.65 46.10L181.80 46.10L181.80 59.20L176.05 59.20M188.95 44.90Q192.10 44.90 194.12 42.88Q196.15 40.85 196.15 37.10L196.15 36.60Q196.15 32.80 194.10 30.80Q192.05 28.80 188.95 28.80Q185.85 28.80 183.77 30.80Q181.70 32.80 181.70 36.60L181.70 37.10Q181.70 40.85 183.77 42.88Q185.85 44.90 188.95 44.90ZM208.00 49.20L208.00 24.50L213.75 24.50L213.75 49.20L208.00 49.20M210.85 21.35Q209.30 21.35 208.17 20.33Q207.05 19.30 207.05 17.60Q207.05 15.90 208.17 14.88Q209.30 13.85 210.85 13.85Q212.50 13.85 213.57 14.88Q214.65 15.90 214.65 17.60Q214.65 19.30 213.57 20.33Q212.50 21.35 210.85 21.35ZM221.05 49.20L221.05 24.50L226.70 24.50L226.70 27.95L227.55 27.95Q228.20 26.55 229.90 25.30Q231.60 24.05 235.05 24.05Q237.90 24.05 240.10 25.35Q242.30 26.65 243.52 28.95Q244.75 31.25 244.75 34.40L244.75 49.20L239.00 49.20L239.00 34.85Q239.00 31.85 237.52 30.38Q236.05 28.90 233.35 28.90Q230.30 28.90 228.55 30.93Q226.80 32.95 226.80 36.70L226.80 49.20L221.05 49.20Z"/></g></g></svg>