<?xml version="1.0" encoding="UTF-8"?>
<svg version="1.1" xmlns="http://www.w3.org/2000/svg" width="1122" height="380">
<path d="M0 0 C370.26 0 740.52 0 1122 0 C1122 125.4 1122 250.8 1122 380 C751.74 380 381.48 380 0 380 C0 254.6 0 129.2 0 0 Z " fill="#865DA4" transform="translate(0,0)"/>
<path d="M0 0 C4.02077152 -0.05843491 8.04143259 -0.0937424 12.0625 -0.125 C13.7630957 -0.15013672 13.7630957 -0.15013672 15.49804688 -0.17578125 C29.41280263 -0.25691685 29.41280263 -0.25691685 34.9375 4.5625 C37.37636201 7.85738642 37.65808747 10.84771874 37.43359375 14.875 C36.78519005 18.05276229 35.36440191 19.84422179 33 22 C32.34 22 31.68 22 31 22 C31 22.66 31 23.32 31 24 C31.61875 24.103125 32.2375 24.20625 32.875 24.3125 C35 25 35 25 37 28 C37.6772783 33.08746258 37.82467221 37.55682364 35.25 42.0625 C30.9459611 45.76875572 27.94883041 46.24516518 22.265625 46.1953125 C20.97011719 46.18886719 19.67460937 46.18242187 18.33984375 46.17578125 C16.97655981 46.15907193 15.61327856 46.14214206 14.25 46.125 C12.87110015 46.1149634 11.49219335 46.10583873 10.11328125 46.09765625 C6.74201118 46.07408093 3.37109364 46.0411727 0 46 C0 43.36 0 40.72 0 38 C1.98 38 3.96 38 6 38 C6 28.1 6 18.2 6 8 C4.02 8 2.04 8 0 8 C0 5.36 0 2.72 0 0 Z " fill="#FAF9FB" transform="translate(395,108)"/>
<path d="M0 0 C4.8821831 2.13040717 7.20671582 5.03677118 9.3046875 9.796875 C11.33892712 16.24244323 10.3087589 22.06998219 7.3203125 28.046875 C5.12156768 31.29945609 2.7514261 32.8987986 -1 34 C-7.03790642 34.89066887 -9.5900221 34.24598674 -15 31 C-15.33 35.95 -15.66 40.9 -16 46 C-18.64 46 -21.28 46 -24 46 C-24 31.15 -24 16.3 -24 1 C-21.36 1 -18.72 1 -16 1 C-15.67 1.66 -15.34 2.32 -15 3 C-14.17628906 2.27103516 -14.17628906 2.27103516 -13.3359375 1.52734375 C-9.21480216 -1.16724474 -4.74781204 -0.59950602 0 0 Z " fill="#FBFAFC" transform="translate(643,121)"/>
<path d="M0 0 C4.8821831 2.13040717 7.20671582 5.03677118 9.3046875 9.796875 C11.33892712 16.24244323 10.3087589 22.06998219 7.3203125 28.046875 C5.12156768 31.29945609 2.7514261 32.8987986 -1 34 C-7.03790642 34.89066887 -9.5900221 34.24598674 -15 31 C-15.33 35.95 -15.66 40.9 -16 46 C-18.64 46 -21.28 46 -24 46 C-24 31.15 -24 16.3 -24 1 C-21.36 1 -18.72 1 -16 1 C-15.67 1.66 -15.34 2.32 -15 3 C-14.17628906 2.27103516 -14.17628906 2.27103516 -13.3359375 1.52734375 C-9.21480216 -1.16724474 -4.74781204 -0.59950602 0 0 Z " fill="#FBFAFC" transform="translate(602,121)"/>
<path d="M0 0 C3.91075925 1.98968453 5.57689098 3.36533646 8 7 C8 7.99 8 8.98 8 10 C5.36 10.33 2.72 10.66 0 11 C-0.66 10.01 -1.32 9.02 -2 8 C-5.58357241 7.74984127 -5.58357241 7.74984127 -9 8 C-9 8.99 -9 9.98 -9 11 C-8.03578125 11.24234375 -7.0715625 11.4846875 -6.078125 11.734375 C-4.81484375 12.06953125 -3.5515625 12.4046875 -2.25 12.75 C-0.99703125 13.07484375 0.2559375 13.3996875 1.546875 13.734375 C5.10074313 15.03692395 6.7611844 15.9836647 9 19 C9.85413454 22.10039746 9.75649631 24.87945273 9 28 C6.84662959 30.79019031 4.1462234 32.4268883 1 34 C-5.129638 34.52081891 -10.90878284 34.84945688 -16 31 C-17.7411879 28.70672813 -18.79006671 26.66185325 -20 24 C-19.67 23.34 -19.34 22.68 -19 22 C-16.67843403 21.59270772 -14.3431213 21.25561323 -12 21 C-11.71125 21.639375 -11.4225 22.27875 -11.125 22.9375 C-10.17176549 25.15206079 -10.17176549 25.15206079 -8 26 C-6.45976004 26.06950541 -4.91665012 26.08452357 -3.375 26.0625 C-2.55773437 26.05347656 -1.74046875 26.04445312 -0.8984375 26.03515625 C-0.27195312 26.02355469 0.35453125 26.01195312 1 26 C1 24.68 1 23.36 1 22 C-0.30324219 21.76216797 -0.30324219 21.76216797 -1.6328125 21.51953125 C-14.21719509 18.97168645 -14.21719509 18.97168645 -18 14 C-18.76061232 10.82699787 -18.81068352 8.16580791 -18 5 C-12.72246615 -0.55529879 -7.33285597 -0.76534745 0 0 Z " fill="#FBFAFC" transform="translate(503,121)"/>
<path d="M0 0 C4.27234232 1.76466313 5.95216974 3.92202118 8 8 C8.34057617 10.86254883 8.34057617 10.86254883 8.29296875 13.95703125 C8.28330078 15.06884766 8.27363281 16.18066406 8.26367188 17.32617188 C8.23853516 18.47666016 8.21339844 19.62714844 8.1875 20.8125 C8.16719727 22.56723633 8.16719727 22.56723633 8.14648438 24.35742188 C8.11120278 27.238752 8.0619028 30.11913904 8 33 C5.36 33 2.72 33 0 33 C-0.495 21.12 -0.495 21.12 -1 9 C-8.38550278 7.17386078 -8.38550278 7.17386078 -11.4375 9.6875 C-13.70043226 13.03663974 -14.10528591 16.12824858 -14.31640625 20.109375 C-14.35830078 20.86347656 -14.40019531 21.61757812 -14.44335938 22.39453125 C-14.50233398 23.56048828 -14.50233398 23.56048828 -14.5625 24.75 C-14.60568359 25.54277344 -14.64886719 26.33554688 -14.69335938 27.15234375 C-14.79902991 29.10137815 -14.89997966 31.05066748 -15 33 C-17.64 33 -20.28 33 -23 33 C-23 22.44 -23 11.88 -23 1 C-20.36 1 -17.72 1 -15 1 C-14.67 1.99 -14.34 2.98 -14 4 C-13.360625 3.34 -12.72125 2.68 -12.0625 2 C-7.95181802 -0.68452701 -4.78444893 -0.71331784 0 0 Z " fill="#FCFBFC" transform="translate(699,121)"/>
<path d="M0 0 C0.91007813 0.00902344 1.82015625 0.01804687 2.7578125 0.02734375 C3.80582031 0.04474609 3.80582031 0.04474609 4.875 0.0625 C4.875 2.3725 4.875 4.6825 4.875 7.0625 C2.895 7.3925 0.915 7.7225 -1.125 8.0625 C-1.455 10.0425 -1.785 12.0225 -2.125 14.0625 C0.515 14.0625 3.155 14.0625 5.875 14.0625 C5.875 16.3725 5.875 18.6825 5.875 21.0625 C3.235 21.0625 0.595 21.0625 -2.125 21.0625 C-2.125 29.3125 -2.125 37.5625 -2.125 46.0625 C-5.095 46.0625 -8.065 46.0625 -11.125 46.0625 C-11.125 37.8125 -11.125 29.5625 -11.125 21.0625 C-13.765 21.0625 -16.405 21.0625 -19.125 21.0625 C-19.125 18.7525 -19.125 16.4425 -19.125 14.0625 C-16.155 14.0625 -13.185 14.0625 -10.125 14.0625 C-10.17720703 13.03189453 -10.17720703 13.03189453 -10.23046875 11.98046875 C-10.27107422 10.62888672 -10.27107422 10.62888672 -10.3125 9.25 C-10.34730469 8.35667969 -10.38210938 7.46335937 -10.41796875 6.54296875 C-10.125 4.0625 -10.125 4.0625 -8.73828125 2.30078125 C-5.7270398 -0.01051062 -3.7368323 -0.04790811 0 0 Z " fill="#F8F6FA" transform="translate(534.125,107.9375)"/>
<path d="M0 0 C2.64 0 5.28 0 8 0 C8 3.63 8 7.26 8 11 C11.3 11 14.6 11 18 11 C18 13.31 18 15.62 18 18 C15.03 18 12.06 18 9 18 C9 23.94 9 29.88 9 36 C11.64 36 14.28 36 17 36 C17 38.31 17 40.62 17 43 C14.91781638 43.10832169 12.83400871 43.18573541 10.75 43.25 C9.58984375 43.29640625 8.4296875 43.3428125 7.234375 43.390625 C4 43 4 43 1.59375 41.65625 C-0.96513239 37.39144601 -0.41841167 33.11450624 -0.25 28.25 C-0.23195313 27.26644531 -0.21390625 26.28289062 -0.1953125 25.26953125 C-0.14824126 22.84536217 -0.08250742 20.42317941 0 18 C-2.64 18 -5.28 18 -8 18 C-8 15.36 -8 12.72 -8 10 C-5.36 10 -2.72 10 0 10 C0 6.7 0 3.4 0 0 Z " fill="#F7F4F8" transform="translate(461,111)"/>
<path d="M0 0 C1.65 0 3.3 0 5 0 C5.14622803 0.57032959 5.29245605 1.14065918 5.44311523 1.72827148 C6.10434115 4.29894789 6.77084771 6.86822574 7.4375 9.4375 C7.66759766 10.33533203 7.89769531 11.23316406 8.13476562 12.15820312 C8.35712891 13.01220703 8.57949219 13.86621094 8.80859375 14.74609375 C9.01282959 15.53685303 9.21706543 16.3276123 9.42749023 17.14233398 C9.84032953 18.9961588 9.84032953 18.9961588 11 20 C11.14622803 19.42967041 11.29245605 18.85934082 11.44311523 18.27172852 C12.10434115 15.70105211 12.77084771 13.13177426 13.4375 10.5625 C13.66759766 9.66466797 13.89769531 8.76683594 14.13476562 7.84179688 C14.35712891 6.98779297 14.57949219 6.13378906 14.80859375 5.25390625 C15.01282959 4.46314697 15.21706543 3.6723877 15.42749023 2.85766602 C16 1 16 1 17 0 C18.66617115 -0.04063832 20.33388095 -0.042721 22 0 C22.21934204 0.80219971 22.21934204 0.80219971 22.44311523 1.62060547 C23.10575521 4.03933339 23.77158806 6.45717096 24.4375 8.875 C24.66759766 9.71675781 24.89769531 10.55851563 25.13476562 11.42578125 C25.35712891 12.23144531 25.57949219 13.03710938 25.80859375 13.8671875 C26.01282959 14.61081543 26.21706543 15.35444336 26.42749023 16.12060547 C26.96216267 18.0636295 26.96216267 18.0636295 28 20 C29.65 13.73 31.3 7.46 33 1 C34.65 0.67 36.3 0.34 38 0 C37.29335599 6.30679775 35.69254449 12.26746919 34 18.375 C33.72671875 19.38433594 33.4534375 20.39367187 33.171875 21.43359375 C31.13016002 28.86983998 31.13016002 28.86983998 30 30 C28.35 30 26.7 30 25 30 C23.02 23.4 21.04 16.8 19 10 C17.39575953 16.206914 17.39575953 16.206914 15.79907227 22.41577148 C15.59854248 23.18477783 15.3980127 23.95378418 15.19140625 24.74609375 C14.98717041 25.53685303 14.78293457 26.3276123 14.57250977 27.14233398 C14 29 14 29 13 30 C11.33382885 30.04063832 9.66611905 30.042721 8 30 C6.84841366 26.12668621 5.70475719 22.25107429 4.5625 18.375 C4.23701172 17.28058594 3.91152344 16.18617188 3.57617188 15.05859375 C3.26357422 13.99511719 2.95097656 12.93164062 2.62890625 11.8359375 C2.34088135 10.86188965 2.05285645 9.8878418 1.75610352 8.88427734 C0.98337976 5.93659946 0.4550688 3.01165706 0 0 Z " fill="#ECE6F1" transform="translate(67,232)"/>
<path d="M0 0 C2 0.33333333 4 0.66666667 6 1 C6.33 0.67 6.66 0.34 7 0 C10.85303968 -0.43784542 12.54122122 -0.30585252 15.8125 1.875 C19.1818007 5.14803497 19.20468753 7.21060998 19.3125 11.8125 C19.26642403 15.65523568 19.14653693 17.70106466 17.4375 21.1875 C14.24834857 23.55892029 11.94671094 23.92824162 8 24 C7.01 23.34 6.02 22.68 5 22 C4.67 24.97 4.34 27.94 4 31 C2.35 31 0.7 31 -1 31 C-1.02465622 26.74585377 -1.04283899 22.49174502 -1.05493164 18.23754883 C-1.05997101 16.78929927 -1.06680253 15.34105483 -1.07543945 13.89282227 C-1.08752247 11.81525412 -1.09323211 9.73775303 -1.09765625 7.66015625 C-1.10289307 6.40855713 -1.10812988 5.15695801 -1.11352539 3.86743164 C-1 1 -1 1 0 0 Z " fill="#EBE4F0" transform="translate(995,239)"/>
<path d="M0 0 C1.32 0 2.64 0 4 0 C4 9.9 4 19.8 4 30 C2.35 29.67 0.7 29.34 -1 29 C-1.99 29.66 -2.98 30.32 -4 31 C-7.93827328 30.85679006 -10.25102816 30.59129356 -13.375 28.125 C-16.64645163 23.84694786 -16.50830328 19.16472437 -16 14 C-14.75114491 11.06519055 -13.73422661 9.57689234 -11.25 7.625 C-7.9712075 6.71422431 -5.29198995 7.3167568 -2 8 C-1.67 8.33 -1.34 8.66 -1 9 C-0.67 6.03 -0.34 3.06 0 0 Z " fill="#ECE6F1" transform="translate(592,232)"/>
<path d="M0 0 C1.32 0 2.64 0 4 0 C4.33 2.97 4.66 5.94 5 9 C5.99 8.34 6.98 7.68 8 7 C11.93827328 7.14320994 14.25102816 7.40870644 17.375 9.875 C20.03801346 13.35740222 20.32877498 16.60724057 20.296875 20.9296875 C19.7672728 24.62296599 17.59283723 27.40716277 15 30 C13.52245384 30.07228699 12.04166002 30.0837999 10.5625 30.0625 C9.35787109 30.04896484 9.35787109 30.04896484 8.12890625 30.03515625 C7.07509766 30.01775391 7.07509766 30.01775391 6 30 C5.34 30 4.68 30 4 30 C2.68 30 1.36 30 0 30 C0 20.1 0 10.2 0 0 Z " fill="#EEE9F2" transform="translate(322,232)"/>
<path d="M0 0 C2.92483867 1.82547936 5.43429205 3.86858411 7 7 C7.43281664 11.23660902 7.44858706 14.91394711 5.8125 18.875 C3.65178487 21.40825222 2.09670876 22.7331646 -1 24 C-5.46867855 24 -7.40913474 23.48810609 -10.875 20.625 C-14.21329168 16.50122793 -14.44077172 13.20110634 -14 8 C-12.3562347 4.88858712 -10.96963114 2.71106283 -8.125 0.625 C-5.14483554 -0.25151896 -3.10161374 -0.43422592 0 0 Z " fill="#EBE5F0" transform="translate(983,239)"/>
<path d="M0 0 C2.92937654 1.81310142 5.43647949 3.87295899 7 7 C7.43281664 11.23660902 7.44858706 14.91394711 5.8125 18.875 C3.65178487 21.40825222 2.09670876 22.7331646 -1 24 C-5.13512058 24 -7.41918348 23.35837615 -10.9375 21.1875 C-14.08252557 16.32700593 -13.99605091 11.6261313 -13 6 C-9.28701221 1.01677955 -6.17732025 -0.71276772 0 0 Z " fill="#ECE5F1" transform="translate(773,239)"/>
<path d="M0 0 C3.27907806 1.70259822 5.40065176 3.08794832 7.4375 6.1875 C8.5446282 11.72314099 8.09927378 16.26243822 5.0625 21.0625 C0.73682685 23.79915036 -3.0092443 23.92733636 -8 23 C-11.09799981 20.80873184 -11.80352112 19.58943664 -13 16 C-13.5074473 12.19414525 -13.86096143 8.55165811 -11.953125 5.11328125 C-8.22843846 0.5888826 -5.78648855 -0.55639313 0 0 Z " fill="#ECE5F0" transform="translate(415,239)"/>
<path d="M0 0 C3.8048182 1.72946282 5.44970738 3.1618306 7 7 C7.74674932 11.76347458 7.89832822 16.50910652 5.125 20.625 C1.33187841 23.50777241 -0.93688157 23.89164694 -5.6171875 23.5703125 C-8.62239004 22.85103451 -10.48949747 21.56814863 -12.23046875 18.984375 C-13.9877612 14.45287974 -13.92827761 9.29820273 -12.11328125 4.8046875 C-9.29552841 0.23696184 -5.04866236 -0.6310828 0 0 Z " fill="#EDE7F1" transform="translate(682,239)"/>
<path d="M0 0 C2.64 0 5.28 0 8 0 C8 15.18 8 30.36 8 46 C5.36 46 2.72 46 0 46 C0 30.82 0 15.64 0 0 Z " fill="#FBF9FC" transform="translate(544,108)"/>
<path d="M0 0 C1.75 1.1875 1.75 1.1875 3.75 4.1875 C3.97705078 6.18041992 3.97705078 6.18041992 3.9453125 8.41796875 C3.93886719 9.22041016 3.93242188 10.02285156 3.92578125 10.84960938 C3.90902344 11.68298828 3.89226563 12.51636719 3.875 13.375 C3.86597656 14.21998047 3.85695313 15.06496094 3.84765625 15.93554688 C3.82410703 18.01965243 3.78823647 20.10361217 3.75 22.1875 C2.96496094 22.001875 2.17992187 21.81625 1.37109375 21.625 C-1.21486862 20.92454273 -1.21486862 20.92454273 -3.1875 22.1875 C-6.21945568 23.65753912 -8.06634872 23.11606496 -11.25 22.1875 C-13.6875 20.5 -13.6875 20.5 -15.25 18.1875 C-15.25 14.81906005 -14.91030537 12.98536899 -12.75 10.375 C-9.04722812 8.61618335 -5.30632151 8.43885326 -1.25 8.1875 C-1.58 7.1975 -1.91 6.2075 -2.25 5.1875 C-4.64719432 4.50791397 -4.64719432 4.50791397 -7.25 4.1875 C-7.91 4.8475 -8.57 5.5075 -9.25 6.1875 C-11.875 5.8125 -11.875 5.8125 -14.25 5.1875 C-13.30275873 2.81939682 -12.59708866 1.43542047 -10.5 -0.0625 C-6.83093003 -1.28552332 -3.64392221 -1.3158608 0 0 Z " fill="#EAE3EF" transform="translate(544.25,239.8125)"/>
<path d="M0 0 C2.70703125 1.4140625 2.70703125 1.4140625 5 4 C5.61741082 7.26940215 5.47150297 10.43784577 5.3125 13.75 C5.28994141 14.63816406 5.26738281 15.52632812 5.24414062 16.44140625 C5.18532552 18.62932812 5.10321268 20.81379671 5 23 C4.236875 22.79375 3.47375 22.5875 2.6875 22.375 C-0.21885944 21.66608797 -0.21885944 21.66608797 -3 24 C-6.36187193 23.81989972 -8.99918142 23.58112046 -11.9375 21.875 C-13.686702 18.78817295 -13.49322017 16.45254118 -13 13 C-9.16696181 9.29060821 -4.08594845 9.32133443 1 9 C0.34 7.68 -0.32 6.36 -1 5 C-3.41645782 4.83312552 -3.41645782 4.83312552 -6 5 C-6.66 5.66 -7.32 6.32 -8 7 C-10.125 6.625 -10.125 6.625 -12 6 C-9.46532142 0.15074175 -6.15786632 -0.63702065 0 0 Z " fill="#EDE7F1" transform="translate(727,239)"/>
<path d="M0 0 C2.38312703 1.89428046 3.6500559 3.30011179 5 6 C5 7.98 5 9.96 5 12 C-0.28 12 -5.56 12 -11 12 C-8.68099769 17.04035387 -8.68099769 17.04035387 -5.5 17.9375 C-2.74605843 18.24621573 -2.74605843 18.24621573 0 16 C1.32 16 2.64 16 4 16 C3.875 17.8125 3.875 17.8125 3 20 C-0.41495319 22.35794387 -2.45854297 23.00933547 -6.625 22.9375 C-10.30594658 21.91501484 -11.70405547 21.002389 -14 18 C-15.35624248 13.93127256 -15.66606438 10.24978036 -15 6 C-11.36340259 -0.55401697 -7.06556468 -1.84684067 0 0 Z " fill="#EDE7F1" transform="translate(263,240)"/>
<path d="M0 0 C2.38312703 1.89428046 3.6500559 3.30011179 5 6 C5 7.98 5 9.96 5 12 C-0.28 12 -5.56 12 -11 12 C-8.68099769 17.04035387 -8.68099769 17.04035387 -5.5 17.9375 C-2.74605843 18.24621573 -2.74605843 18.24621573 0 16 C1.32 16 2.64 16 4 16 C3.875 17.8125 3.875 17.8125 3 20 C-0.41495319 22.35794387 -2.45854297 23.00933547 -6.625 22.9375 C-10.30594658 21.91501484 -11.70405547 21.002389 -14 18 C-15.35624248 13.93127256 -15.66606438 10.24978036 -15 6 C-11.36340259 -0.55401697 -7.06556468 -1.84684067 0 0 Z " fill="#EDE7F1" transform="translate(184,240)"/>
<path d="M0 0 C2.38312703 1.89428046 3.6500559 3.30011179 5 6 C5 7.98 5 9.96 5 12 C-0.28 12 -5.56 12 -11 12 C-8.67143012 17.02388487 -8.67143012 17.02388487 -5.5 18 C-2.93958381 18.28855493 -2.93958381 18.28855493 -1.4375 16.5 C-0.963125 16.005 -0.48875 15.51 0 15 C2.1875 15.3125 2.1875 15.3125 4 16 C3.6875 17.875 3.6875 17.875 3 20 C-1.22583705 22.8172247 -5.03570016 22.67547031 -10 22 C-13.09799981 19.80873184 -13.80352112 18.58943664 -15 15 C-15.5074473 11.19414525 -15.86096143 7.55165811 -13.953125 4.11328125 C-9.67841907 -1.07922918 -6.39506765 -1.67158204 0 0 Z " fill="#EFE9F2" transform="translate(901,240)"/>
<path d="M0 0 C2.38312703 1.89428046 3.6500559 3.30011179 5 6 C5 7.98 5 9.96 5 12 C-0.28 12 -5.56 12 -11 12 C-8.67143012 17.02388487 -8.67143012 17.02388487 -5.5 18 C-2.93958381 18.28855493 -2.93958381 18.28855493 -1.4375 16.5 C-0.963125 16.005 -0.48875 15.51 0 15 C2.1875 15.3125 2.1875 15.3125 4 16 C3.6875 17.875 3.6875 17.875 3 20 C-1.22583705 22.8172247 -5.03570016 22.67547031 -10 22 C-13.09799981 19.80873184 -13.80352112 18.58943664 -15 15 C-15.5074473 11.19414525 -15.86096143 7.55165811 -13.953125 4.11328125 C-9.67841907 -1.07922918 -6.39506765 -1.67158204 0 0 Z " fill="#EFE9F2" transform="translate(857,240)"/>
<path d="M0 0 C2.70146863 1.73171066 3.75365658 2.89882385 4.45703125 6.04296875 C4.71940781 8.01953882 4.86736719 10.01050779 5 12 C-0.28 12 -5.56 12 -11 12 C-9.02 14.97 -9.02 14.97 -7 18 C-4.02934491 17.65772428 -4.02934491 17.65772428 -1 17 C-0.67 16.34 -0.34 15.68 0 15 C1.32 15.33 2.64 15.66 4 16 C2.25 20.875 2.25 20.875 0 22 C-3.40839841 22.47657252 -6.5968533 22.53958841 -10 22 C-13.57113531 19.28593716 -14.72158868 17.9039742 -15.36328125 13.515625 C-15.48660562 9.12787385 -15.32905372 5.81043064 -13 2 C-8.8080781 -1.5754628 -5.07053527 -1.52752527 0 0 Z " fill="#EEE8F2" transform="translate(219,240)"/>
<path d="M0 0 C2.9375 2.125 2.9375 2.125 5 5 C5 7.31 5 9.62 5 12 C0.05 12 -4.9 12 -10 12 C-9.34 13.65 -8.68 15.3 -8 17 C-5.22841653 17.75063719 -2.85785481 18 0 18 C0.33 17.01 0.66 16.02 1 15 C2.32 15.33 3.64 15.66 5 16 C4.6875 17.875 4.6875 17.875 4 20 C-0.25451655 22.83634436 -4.00822671 22.74836793 -9 22 C-12.20801077 19.97044217 -13.55160311 18.53413779 -14.62109375 14.875 C-15.45418977 9.79053771 -15.07925264 6.3109537 -12 2 C-7.97139968 -1.4690725 -5.03308547 -1.43802442 0 0 Z " fill="#EEE8F2" transform="translate(146,240)"/>
<path d="M0 0 C2.97 0 5.94 0 9 0 C9 10.56 9 21.12 9 32 C6.03 32 3.06 32 0 32 C0 21.44 0 10.88 0 0 Z " fill="#F6F3F8" transform="translate(659,122)"/>
<path d="M0 0 C2.97 0 5.94 0 9 0 C9 10.56 9 21.12 9 32 C6.03 32 3.06 32 0 32 C0 21.44 0 10.88 0 0 Z " fill="#F6F3F8" transform="translate(439,122)"/>
<path d="M0 0 C2.375 1.4375 2.375 1.4375 4 4 C4.74581066 8.57379802 4.81349917 12.51447978 2.5625 16.625 C-1.15905907 18.62193414 -4.86428933 18.84542152 -9 18 C-11.46003235 16.07792461 -11.98718919 15.03843243 -13 12 C-13.38514834 7.84039789 -13.44225244 5.70150387 -11.1875 2.125 C-7.50859763 -1.44879087 -4.76887416 -1.26521151 0 0 Z " fill="#875FA5" transform="translate(640,129)"/>
<path d="M0 0 C2.375 1.4375 2.375 1.4375 4 4 C4.74581066 8.57379802 4.81349917 12.51447978 2.5625 16.625 C-1.15905907 18.62193414 -4.86428933 18.84542152 -9 18 C-11.46003235 16.07792461 -11.98718919 15.03843243 -13 12 C-13.38514834 7.84039789 -13.44225244 5.70150387 -11.1875 2.125 C-7.50859763 -1.44879087 -4.76887416 -1.26521151 0 0 Z " fill="#875EA4" transform="translate(599,129)"/>
<path d="M0 0 C2.64 0 5.28 0 8 0 C8 10.56 8 21.12 8 32 C5.36 32 2.72 32 0 32 C0 21.44 0 10.88 0 0 Z " fill="#FEFEFE" transform="translate(561,122)"/>
<path d="M0 0 C2.30275556 1.8670991 3.67823871 3.35647741 5 6 C5.07194869 8.88370333 5.09291708 11.74239664 5.0625 14.625 C5.05798828 15.42679688 5.05347656 16.22859375 5.04882812 17.0546875 C5.03703168 19.03649006 5.01909605 21.01825433 5 23 C3.35 23 1.7 23 0 23 C-0.33 17.39 -0.66 11.78 -1 6 C-2.65 5.67 -4.3 5.34 -6 5 C-8.93447357 7.93447357 -8.46158423 11.18259456 -8.625 15.125 C-8.66367187 15.87910156 -8.70234375 16.63320312 -8.7421875 17.41015625 C-8.83651031 19.27303184 -8.91934662 21.13648255 -9 23 C-10.65 23 -12.3 23 -14 23 C-14 15.74 -14 8.48 -14 1 C-12.02 1 -10.04 1 -8 1 C-5.15916359 -0.42041821 -3.14522722 -0.31452272 0 0 Z " fill="#E7DFED" transform="translate(636,239)"/>
<path d="M0 0 C1.32 0 2.64 0 4 0 C4.33 2.97 4.66 5.94 5 9 C5.99 8.34 6.98 7.68 8 7 C14.09559476 7.21769981 14.09559476 7.21769981 16.70703125 9.4765625 C18.68131469 13.32969573 18.31725524 16.99136649 18.1875 21.25 C18.16719727 22.51070312 18.16719727 22.51070312 18.14648438 23.796875 C18.11123464 25.86485938 18.0574302 27.93251271 18 30 C16.68 30 15.36 30 14 30 C13.92652344 28.30230469 13.92652344 28.30230469 13.8515625 26.5703125 C13.77653486 25.08851661 13.70098703 23.606747 13.625 22.125 C13.5940625 21.37863281 13.563125 20.63226563 13.53125 19.86328125 C13.44356169 15.46526812 13.44356169 15.46526812 11 12 C7.69316534 12.28983269 7.69316534 12.28983269 5 14 C4.76321284 16.69235776 4.57801975 19.36498156 4.4375 22.0625 C4.39431641 22.82111328 4.35113281 23.57972656 4.30664062 24.36132812 C4.20026367 26.24065438 4.09960066 28.12030244 4 30 C2.68 30 1.36 30 0 30 C0 20.1 0 10.2 0 0 Z " fill="#EFEAF3" transform="translate(109,232)"/>
<path d="M0 0 C1.65 0 3.3 0 5 0 C6.65 4.29 8.3 8.58 10 13 C11.8272911 10.25906335 12.93698178 7.86174676 14.125 4.8125 C14.47820312 3.91144531 14.83140625 3.01039063 15.1953125 2.08203125 C15.46085937 1.39496094 15.72640625 0.70789063 16 0 C17.65 0 19.3 0 21 0 C19.32166763 6.50553596 17.01875432 12.71946962 14.5 18.9375 C14.20343506 19.68314209 13.90687012 20.42878418 13.60131836 21.19702148 C13.3100708 21.90415283 13.01882324 22.61128418 12.71875 23.33984375 C12.46029297 23.97269287 12.20183594 24.60554199 11.93554688 25.25756836 C10.85365313 27.27256722 9.78146129 28.56417499 8 30 C4.8125 30.1875 4.8125 30.1875 2 30 C2 28.68 2 27.36 2 26 C3.65 26 5.3 26 7 26 C7.52149442 20.2263118 5.67752133 15.96259932 3.5 10.75 C2.84093364 9.14177629 2.18454661 7.53245114 1.53125 5.921875 C1.23798828 5.21643555 0.94472656 4.51099609 0.64257812 3.78417969 C0 2 0 2 0 0 Z " fill="#EDE7F1" transform="translate(286,240)"/>
<path d="M0 0 C1.32 0 2.64 0 4 0 C4.33 0.66 4.66 1.32 5 2 C5.99 1.34 6.98 0.68 8 0 C14.10057078 0.32681629 14.10057078 0.32681629 16.70043945 2.27270508 C18.36204447 4.48120695 18.3481786 5.70712971 18.29296875 8.44921875 C18.28330078 9.29677734 18.27363281 10.14433594 18.26367188 11.01757812 C18.23853516 11.89865234 18.21339844 12.77972656 18.1875 13.6875 C18.16719727 15.02651367 18.16719727 15.02651367 18.14648438 16.39257812 C18.11114079 18.59566166 18.06180493 20.79752582 18 23 C16.68 23 15.36 23 14 23 C13.67 17.06 13.34 11.12 13 5 C10.69 5.33 8.38 5.66 6 6 C5.67 11.61 5.34 17.22 5 23 C3.35 23 1.7 23 0 23 C0 15.41 0 7.82 0 0 Z " fill="#EBE4F0" transform="translate(819,239)"/>
<path d="M0 0 C3.51358424 0.81565348 4.42231174 1.0509662 6.5 3.8125 C6.84057617 5.8972168 6.84057617 5.8972168 6.79296875 8.26171875 C6.78330078 9.10927734 6.77363281 9.95683594 6.76367188 10.83007812 C6.73853516 11.71115234 6.71339844 12.59222656 6.6875 13.5 C6.66719727 14.83901367 6.66719727 14.83901367 6.64648438 16.20507812 C6.61114079 18.40816166 6.56180493 20.61002582 6.5 22.8125 C5.18 22.8125 3.86 22.8125 2.5 22.8125 C2.17 16.8725 1.84 10.9325 1.5 4.8125 C-0.81 5.1425 -3.12 5.4725 -5.5 5.8125 C-5.83 11.4225 -6.16 17.0325 -6.5 22.8125 C-8.15 22.8125 -9.8 22.8125 -11.5 22.8125 C-11.5 15.5525 -11.5 8.2925 -11.5 0.8125 C-9.025 1.3075 -9.025 1.3075 -6.5 1.8125 C-3.5 -0.1875 -3.5 -0.1875 0 0 Z " fill="#ECE5F0" transform="translate(795.5,239.1875)"/>
<path d="M0 0 C3.51358424 0.81565348 4.42231174 1.0509662 6.5 3.8125 C6.84057617 5.8972168 6.84057617 5.8972168 6.79296875 8.26171875 C6.78330078 9.10927734 6.77363281 9.95683594 6.76367188 10.83007812 C6.73853516 11.71115234 6.71339844 12.59222656 6.6875 13.5 C6.66719727 14.83901367 6.66719727 14.83901367 6.64648438 16.20507812 C6.61114079 18.40816166 6.56180493 20.61002582 6.5 22.8125 C5.18 22.8125 3.86 22.8125 2.5 22.8125 C2.17 16.8725 1.84 10.9325 1.5 4.8125 C-0.81 5.1425 -3.12 5.4725 -5.5 5.8125 C-5.83 11.4225 -6.16 17.0325 -6.5 22.8125 C-8.15 22.8125 -9.8 22.8125 -11.5 22.8125 C-11.5 15.5525 -11.5 8.2925 -11.5 0.8125 C-9.025 1.3075 -9.025 1.3075 -6.5 1.8125 C-3.5 -0.1875 -3.5 -0.1875 0 0 Z " fill="#EBE5F0" transform="translate(564.5,239.1875)"/>
<path d="M0 0 C2 1.375 2 1.375 3 3 C3 3.99 3 4.98 3 6 C0.43565836 5.48713167 -2.12781543 4.97324793 -4.6875 4.4375 C-6.93526987 3.93803611 -6.93526987 3.93803611 -9 4 C-8.33798171 7.16129253 -8.33798171 7.16129253 -5.75 8.1328125 C-4.8425 8.46023437 -3.935 8.78765625 -3 9.125 C1.93273543 10.93273543 1.93273543 10.93273543 3 12 C3.45528455 18.14634146 3.45528455 18.14634146 2 20.875 C-1.17569599 22.661329 -4.41183467 23.11890606 -8 23 C-10.9375 21.8125 -10.9375 21.8125 -13 20 C-13.8125 17.8125 -13.8125 17.8125 -14 16 C-12.1875 15.3125 -12.1875 15.3125 -10 15 C-9.525625 15.495 -9.05125 15.99 -8.5625 16.5 C-8.046875 16.995 -7.53125 17.49 -7 18 C-4.34533951 17.76956136 -4.34533951 17.76956136 -2 17 C-2.33 16.01 -2.66 15.02 -3 14 C-5.03538947 13.08595895 -5.03538947 13.08595895 -7.4375 12.5 C-11.78082192 11.32876712 -11.78082192 11.32876712 -14 8 C-13.9375 5 -13.9375 5 -13 2 C-8.82412975 -1.9227872 -5.2305179 -1.18108469 0 0 Z " fill="#ECE5F1" transform="translate(950,240)"/>
<path d="M0 0 C2 1.5625 2 1.5625 3 3 C2.67 3.99 2.34 4.98 2 6 C1.443125 5.855625 0.88625 5.71125 0.3125 5.5625 C-2.11384195 4.97230872 -4.54906345 4.476571 -7 4 C-7.33 4.99 -7.66 5.98 -8 7 C-7.30132813 7.26554688 -6.60265625 7.53109375 -5.8828125 7.8046875 C-4.51769531 8.33449219 -4.51769531 8.33449219 -3.125 8.875 C-1.76761719 9.39707031 -1.76761719 9.39707031 -0.3828125 9.9296875 C2 11 2 11 4 13 C4.375 15.375 4.375 15.375 4 18 C2.12972515 20.24432982 0.61113596 21.69443202 -2 23 C-6.60763247 23.40956733 -9.35223473 22.91821221 -13 20 C-13.8125 17.8125 -13.8125 17.8125 -14 16 C-12.68 15.67 -11.36 15.34 -10 15 C-9.67 15.99 -9.34 16.98 -9 18 C-7.02 18 -5.04 18 -3 18 C-2.34 16.68 -1.68 15.36 -1 14 C-1.92232422 13.83564453 -1.92232422 13.83564453 -2.86328125 13.66796875 C-3.67152344 13.50941406 -4.47976563 13.35085937 -5.3125 13.1875 C-6.51326172 12.96126953 -6.51326172 12.96126953 -7.73828125 12.73046875 C-10.28590928 11.9076597 -11.37695759 11.10944313 -13 9 C-13.5 6.0625 -13.5 6.0625 -13 3 C-8.98015175 -1.89919005 -5.7052582 -1.3803044 0 0 Z " fill="#ECE6F1" transform="translate(1032,240)"/>
<path d="M0 0 C2 1.5625 2 1.5625 3 3 C2.67 3.99 2.34 4.98 2 6 C1.443125 5.855625 0.88625 5.71125 0.3125 5.5625 C-2.11384195 4.97230872 -4.54906345 4.476571 -7 4 C-7.33 4.99 -7.66 5.98 -8 7 C-7.30132812 7.26554688 -6.60265625 7.53109375 -5.8828125 7.8046875 C-4.51769531 8.33449219 -4.51769531 8.33449219 -3.125 8.875 C-1.76761719 9.39707031 -1.76761719 9.39707031 -0.3828125 9.9296875 C2 11 2 11 4 13 C4.50782261 16.21620989 4.30917892 17.55478235 2.4375 20.25 C-0.80786339 22.58000448 -3.0174072 22.93133461 -7 23 C-10.375 21.8125 -10.375 21.8125 -13 20 C-13.875 17.8125 -13.875 17.8125 -14 16 C-12.68 15.67 -11.36 15.34 -10 15 C-9.67 15.99 -9.34 16.98 -9 18 C-7.02 18 -5.04 18 -3 18 C-2.34 16.68 -1.68 15.36 -1 14 C-1.92232422 13.83564453 -1.92232422 13.83564453 -2.86328125 13.66796875 C-3.67152344 13.50941406 -4.47976563 13.35085937 -5.3125 13.1875 C-6.51326172 12.96126953 -6.51326172 12.96126953 -7.73828125 12.73046875 C-10.28590928 11.9076597 -11.37695759 11.10944313 -13 9 C-13.5 6.0625 -13.5 6.0625 -13 3 C-8.98015175 -1.89919005 -5.7052582 -1.3803044 0 0 Z " fill="#ECE5F0" transform="translate(500,240)"/>
<path d="M0 0 C3.5 0.875 3.5 0.875 5.20703125 2.3515625 C7.18131469 6.20469573 6.81725524 9.86636649 6.6875 14.125 C6.66719727 15.38570312 6.66719727 15.38570312 6.64648438 16.671875 C6.61123464 18.73985938 6.5574302 20.80751271 6.5 22.875 C5.18 22.875 3.86 22.875 2.5 22.875 C2.42652344 21.17730469 2.42652344 21.17730469 2.3515625 19.4453125 C2.27653486 17.96351661 2.20098703 16.481747 2.125 15 C2.0940625 14.25363281 2.063125 13.50726563 2.03125 12.73828125 C1.94356169 8.34026812 1.94356169 8.34026812 -0.5 4.875 C-3.07540213 5.04007646 -3.07540213 5.04007646 -5.5 5.875 C-7.02106634 8.91713267 -6.87429338 12.15547572 -7.0625 15.5 C-7.10568359 16.20640625 -7.14886719 16.9128125 -7.19335938 17.640625 C-7.29944751 19.38518537 -7.40022889 21.13006697 -7.5 22.875 C-8.82 22.875 -10.14 22.875 -11.5 22.875 C-11.5 15.615 -11.5 8.355 -11.5 0.875 C-9.025 1.37 -9.025 1.37 -6.5 1.875 C-3.5 -0.125 -3.5 -0.125 0 0 Z " fill="#F1ECF4" transform="translate(657.5,239.125)"/>
<path d="M0 0 C3.5 0.875 3.5 0.875 5.20703125 2.3515625 C7.18131469 6.20469573 6.81725524 9.86636649 6.6875 14.125 C6.66719727 15.38570312 6.66719727 15.38570312 6.64648438 16.671875 C6.61123464 18.73985938 6.5574302 20.80751271 6.5 22.875 C5.18 22.875 3.86 22.875 2.5 22.875 C2.42652344 21.17730469 2.42652344 21.17730469 2.3515625 19.4453125 C2.27653486 17.96351661 2.20098703 16.481747 2.125 15 C2.0940625 14.25363281 2.063125 13.50726563 2.03125 12.73828125 C1.94356169 8.34026812 1.94356169 8.34026812 -0.5 4.875 C-3.80683466 5.16483269 -3.80683466 5.16483269 -6.5 6.875 C-6.73678716 9.56735776 -6.92198025 12.23998156 -7.0625 14.9375 C-7.10568359 15.69611328 -7.14886719 16.45472656 -7.19335938 17.23632812 C-7.29973633 19.11565438 -7.40039934 20.99530244 -7.5 22.875 C-8.82 22.875 -10.14 22.875 -11.5 22.875 C-11.5 15.615 -11.5 8.355 -11.5 0.875 C-9.025 1.37 -9.025 1.37 -6.5 1.875 C-3.5 -0.125 -3.5 -0.125 0 0 Z " fill="#F0EBF3" transform="translate(462.5,239.125)"/>
<path d="M0 0 C1.32 0 2.64 0 4 0 C4.06058594 1.14339844 4.12117188 2.28679687 4.18359375 3.46484375 C4.26798428 4.95574305 4.35263302 6.44662775 4.4375 7.9375 C4.47681641 8.69224609 4.51613281 9.44699219 4.55664062 10.22460938 C4.44038024 13.91944187 4.44038024 13.91944187 6 17 C7.99958364 17.04080783 10.00045254 17.04254356 12 17 C13.15570704 13.53287889 13.32835293 10.4585044 13.5625 6.8125 C13.64628906 5.54019531 13.73007812 4.26789063 13.81640625 2.95703125 C13.87699219 1.98121094 13.93757813 1.00539062 14 0 C15.32 0 16.64 0 18 0 C18 7.26 18 14.52 18 22 C16.35 21.67 14.7 21.34 13 21 C12.67 21.33 12.34 21.66 12 22 C4.54135338 22.36090226 4.54135338 22.36090226 1 20 C0.09761253 17.29283758 -0.11851302 15.76223232 -0.09765625 12.98828125 C-0.09443359 12.23095703 -0.09121094 11.47363281 -0.08789062 10.69335938 C-0.07951172 9.90767578 -0.07113281 9.12199219 -0.0625 8.3125 C-0.05798828 7.51521484 -0.05347656 6.71792969 -0.04882812 5.89648438 C-0.0370585 3.93095743 -0.01912348 1.96546915 0 0 Z " fill="#F1ECF4" transform="translate(427,240)"/>
<path d="M0 0 C3.22671625 0.93190361 4.50239481 2.80738956 6.1640625 5.625 C5.5040625 6.285 4.8440625 6.945 4.1640625 7.625 C3.1740625 7.625 2.1840625 7.625 1.1640625 7.625 C0.7103125 7.109375 0.2565625 6.59375 -0.2109375 6.0625 C-0.7471875 5.588125 -1.2834375 5.11375 -1.8359375 4.625 C-4.4632289 4.70033247 -4.4632289 4.70033247 -6.8359375 5.625 C-8.4282468 8.80961859 -8.22498787 12.15891489 -7.8359375 15.625 C-6.83105524 17.80000647 -6.83105524 17.80000647 -4.8359375 18.625 C-2.2086461 18.54966753 -2.2086461 18.54966753 0.1640625 17.625 C0.4940625 16.965 0.8240625 16.305 1.1640625 15.625 C2.8140625 15.955 4.4640625 16.285 6.1640625 16.625 C4.82221496 19.17451033 3.6971519 21.20614404 1.4140625 23 C-2.02425968 23.95508949 -4.39991438 23.52921661 -7.8359375 22.625 C-11.9241309 19.15892298 -13.7023306 17.22828284 -14.1484375 11.875 C-14.10056251 7.48645908 -12.66300174 5.01747708 -9.8359375 1.625 C-6.08122646 -0.87814069 -4.31999773 -0.56286615 0 0 Z " fill="#EBE4EF" transform="translate(392.8359375,239.375)"/>
<path d="M0 0 C1.32 0 2.64 0 4 0 C3.42065296 5.31068123 2.19397266 9.90706988 0.25 14.875 C-0.10964844 15.88820312 -0.10964844 15.88820312 -0.4765625 16.921875 C-1.234375 18.8671875 -1.234375 18.8671875 -3 22 C-5.703125 22.9453125 -5.703125 22.9453125 -8 23 C-16 7.85714286 -16 7.85714286 -16 1 C-13.64453125 1.1640625 -13.64453125 1.1640625 -11 2 C-9.63671875 4.3984375 -9.63671875 4.3984375 -8.6875 7.375 C-8.36136719 8.35210937 -8.03523437 9.32921875 -7.69921875 10.3359375 C-7 13 -7 13 -7 16 C-6.34 16 -5.68 16 -5 16 C-4.89042969 15.43152344 -4.78085937 14.86304688 -4.66796875 14.27734375 C-3.62061834 9.17683242 -2.20728247 4.715558 0 0 Z " fill="#ECE6F0" transform="translate(880,239)"/>
<path d="M0 0 C1.65 0 3.3 0 5 0 C6.65 4.62 8.3 9.24 10 14 C10.804375 11.875625 11.60875 9.75125 12.4375 7.5625 C14.875 1.125 14.875 1.125 16 0 C17.66617115 -0.04063832 19.33388095 -0.042721 21 0 C20.0429738 2.72963132 19.08442654 5.45871242 18.125 8.1875 C17.85558594 8.95642578 17.58617187 9.72535156 17.30859375 10.51757812 C15.94942181 14.37961548 14.56285788 18.21424232 13 22 C11.35 22 9.7 22 8 22 C4.85830477 14.7728592 2.07042054 7.60837466 0 0 Z " fill="#EDE6F1" transform="translate(691,240)"/>
<path d="M0 0 C1.65 0 3.3 0 5 0 C5.26554688 0.67546875 5.53109375 1.3509375 5.8046875 2.046875 C6.15789062 2.93890625 6.51109375 3.8309375 6.875 4.75 C7.22304687 5.63171875 7.57109375 6.5134375 7.9296875 7.421875 C8.85749079 9.65672963 9.91783604 11.83567209 11 14 C12.65 9.38 14.3 4.76 16 0 C17.65 0 19.3 0 21 0 C18.92957946 7.60837466 16.14169523 14.7728592 13 22 C11.35 22 9.7 22 8 22 C6.66399387 18.52185372 5.33164358 15.04231861 4 11.5625 C3.6184375 10.56927734 3.236875 9.57605469 2.84375 8.55273438 C2.4828125 7.60849609 2.121875 6.66425781 1.75 5.69140625 C1.41484375 4.81685791 1.0796875 3.94230957 0.734375 3.04125977 C0 1 0 1 0 0 Z " fill="#ECE6F1" transform="translate(225,240)"/>
<path d="M0 0 C1.65 0 3.3 0 5 0 C5 1.98 5 3.96 5 6 C6.32 6 7.64 6 9 6 C9 6.99 9 7.98 9 9 C7.68 9 6.36 9 5 9 C5 13.95 5 18.9 5 24 C6.32 24 7.64 24 9 24 C9.33 25.32 9.66 26.64 10 28 C3.62063407 28.36109618 3.62063407 28.36109618 1.28125 27 C-0.75518944 23.82116771 -0.31160535 20.45610577 -0.1875 16.8125 C-0.16719727 15.68811523 -0.16719727 15.68811523 -0.14648438 14.54101562 C-0.11118539 12.69370233 -0.05737917 10.84675934 0 9 C-0.99 9 -1.98 9 -3 9 C-3 8.01 -3 7.02 -3 6 C-2.01 6 -1.02 6 0 6 C0 4.02 0 2.04 0 0 Z " fill="#EAE2EF" transform="translate(958,234)"/>
<path d="M0 0 C1.65 0.33 3.3 0.66 5 1 C5 2.65 5 4.3 5 6 C6.32 6 7.64 6 9 6 C9 6.99 9 7.98 9 9 C7.68 9 6.36 9 5 9 C5 13.95 5 18.9 5 24 C6.32 24 7.64 24 9 24 C9.33 25.32 9.66 26.64 10 28 C3.62063407 28.36109618 3.62063407 28.36109618 1.28125 27 C-0.75518944 23.82116771 -0.31160535 20.45610577 -0.1875 16.8125 C-0.16719727 15.68811523 -0.16719727 15.68811523 -0.14648438 14.54101562 C-0.11118539 12.69370233 -0.05737917 10.84675934 0 9 C-0.99 9 -1.98 9 -3 9 C-3 8.01 -3 7.02 -3 6 C-2.01 6 -1.02 6 0 6 C0 4.02 0 2.04 0 0 Z " fill="#E9E1EE" transform="translate(356,234)"/>
<path d="M0 0 C1.32 0 2.64 0 4 0 C4 1.98 4 3.96 4 6 C5.65 6 7.3 6 9 6 C9 6.99 9 7.98 9 9 C7.35 9 5.7 9 4 9 C4.05985379 11.29240007 4.14859027 13.58406206 4.25 15.875 C4.29640625 17.15117187 4.3428125 18.42734375 4.390625 19.7421875 C4.62555056 23.09188105 4.62555056 23.09188105 7.046875 24.4453125 C7.69140625 24.62835938 8.3359375 24.81140625 9 25 C9 25.99 9 26.98 9 28 C5.625 28.125 5.625 28.125 2 28 C0 26 0 26 -0.1953125 22.0859375 C-0.18200376 20.51550649 -0.15813602 18.94513779 -0.125 17.375 C-0.11597656 16.57320312 -0.10695313 15.77140625 -0.09765625 14.9453125 C-0.07406223 12.96341477 -0.03819065 10.98167019 0 9 C-1.32 9 -2.64 9 -4 9 C-4 8.01 -4 7.02 -4 6 C-2.68 6 -1.36 6 0 6 C0 4.02 0 2.04 0 0 Z " fill="#EEE8F2" transform="translate(475,234)"/>
<path d="M0 0 C1.32 0 2.64 0 4 0 C4 1.98 4 3.96 4 6 C5.65 6 7.3 6 9 6 C9 6.99 9 7.98 9 9 C7.35 9 5.7 9 4 9 C4.33 13.62 4.66 18.24 5 23 C6.32 23.33 7.64 23.66 9 24 C9 25.32 9 26.64 9 28 C3.60674157 28.35955056 3.60674157 28.35955056 1.3125 27 C-0.76763714 23.83026721 -0.31199229 20.46746606 -0.1875 16.8125 C-0.16719727 15.68811523 -0.16719727 15.68811523 -0.14648438 14.54101562 C-0.11118539 12.69370233 -0.05737917 10.84675934 0 9 C-0.99 9 -1.98 9 -3 9 C-3 8.01 -3 7.02 -3 6 C-2.01 6 -1.02 6 0 6 C0 4.02 0 2.04 0 0 Z " fill="#EFEAF3" transform="translate(738,234)"/>
<path d="M0 0 C2.375 0.875 2.375 0.875 4.375 2.875 C5.54093591 7.24725967 5.4483767 9.8434342 3.375 13.875 C2.375 14.875 2.375 14.875 -1.0625 15.125 C-2.238125 15.0425 -3.41375 14.96 -4.625 14.875 C-7.07949095 11.19326358 -7.32060229 8.15166592 -6.625 3.875 C-4.58132978 0.77164892 -3.7605435 -0.1790735 0 0 Z " fill="#8F67AC" transform="translate(980.625,243.125)"/>
<path d="M0 0 C2.375 0.875 2.375 0.875 4.375 2.875 C5.54093591 7.24725967 5.4483767 9.8434342 3.375 13.875 C2.375 14.875 2.375 14.875 -1.0625 15.125 C-2.238125 15.0425 -3.41375 14.96 -4.625 14.875 C-7.07949095 11.19326358 -7.32060229 8.15166592 -6.625 3.875 C-4.58132978 0.77164892 -3.7605435 -0.1790735 0 0 Z " fill="#8C64A9" transform="translate(770.625,243.125)"/>
<path d="M0 0 C3 0.1875 3 0.1875 6 1 C7.99825961 3.99738941 8.27550398 4.63347508 8.25 8 C8.25515625 8.680625 8.2603125 9.36125 8.265625 10.0625 C8 12 8 12 6 15 C2.5 15.3125 2.5 15.3125 -1 15 C-3.63326457 12.36673543 -3.71180635 10.67446899 -4 7 C-3.07417343 3.86643316 -2.31531305 2.31531305 0 0 Z " fill="#8960A5" transform="translate(410,243)"/>
<path d="M0 0 C0 1.65 0 3.3 0 5 C-1.98 5.66 -3.96 6.32 -6 7 C-6.33 12.28 -6.66 17.56 -7 23 C-8.65 23 -10.3 23 -12 23 C-12 15.74 -12 8.48 -12 1 C-10.02 1 -8.04 1 -6 1 C-4 0 -4 0 0 0 Z " fill="#E8E0EE" transform="translate(922,239)"/>
<path d="M0 0 C2.375 0.9375 2.375 0.9375 4.375 3.9375 C5.04063945 10.92671418 5.04063945 10.92671418 2.6875 14.5 C0.375 15.9375 0.375 15.9375 -2.25 15.875 C-4.625 14.9375 -4.625 14.9375 -6.625 11.9375 C-7.29063945 4.94828582 -7.29063945 4.94828582 -4.9375 1.375 C-2.625 -0.0625 -2.625 -0.0625 0 0 Z " fill="#8F68AC" transform="translate(1005.625,243.0625)"/>
<path d="M0 0 C0.78375 0.04125 1.5675 0.0825 2.375 0.125 C2.375 1.775 2.375 3.425 2.375 5.125 C0.065 5.455 -2.245 5.785 -4.625 6.125 C-4.625 11.735 -4.625 17.345 -4.625 23.125 C-6.275 23.125 -7.925 23.125 -9.625 23.125 C-9.625 15.865 -9.625 8.605 -9.625 1.125 C-7.15 1.62 -7.15 1.62 -4.625 2.125 C-2.625 0.125 -2.625 0.125 0 0 Z " fill="#E7DFED" transform="translate(281.625,238.875)"/>
<path d="M0 0 C2.375 0.9375 2.375 0.9375 4.375 3.9375 C5.04063945 10.92671418 5.04063945 10.92671418 2.6875 14.5 C0.375 15.9375 0.375 15.9375 -2.25 16 C-4.625 14.9375 -4.625 14.9375 -5.9375 12.75 C-6.71249645 9.57955996 -7.03965934 7.18566487 -6.625 3.9375 C-4.56007881 0.95483606 -3.68798539 -0.08780918 0 0 Z " fill="#8860A5" transform="translate(332.625,243.0625)"/>
<path d="M0 0 C2.5 1 2.5 1 4.375 3.125 C5.82826926 6.83891033 5.44082291 9.16433738 4.5 13 C2.5 15 2.5 15 -0.4375 15.4375 C-3.5 15 -3.5 15 -5.4375 12.9375 C-6.80258643 9.16343753 -6.50096139 6.86085108 -5.5 3 C-3.81669603 0.30671365 -3.18430365 0 0 0 Z " fill="#8A61A7" transform="translate(679.5,243)"/>
<path d="M0 0 C8.06830986 -0.36126761 8.06830986 -0.36126761 12.0625 1.1875 C14 3 14 3 14.5 5.5 C13.90959132 8.45204342 13.39405407 9.22112042 11 11 C7.29631297 11.40199208 3.73655831 11.13187853 0 11 C0 7.37 0 3.74 0 0 Z " fill="#855CA3" transform="translate(410,135)"/>
<path d="M0 0 C2.4375 0.8125 2.4375 0.8125 4.4375 2.8125 C4.703125 5.125 4.703125 5.125 4.6875 7.8125 C4.69265625 8.699375 4.6978125 9.58625 4.703125 10.5 C4.4375 12.8125 4.4375 12.8125 2.4375 14.8125 C-0.5625 15.0625 -0.5625 15.0625 -3.5625 14.8125 C-6.07262963 12.30237037 -5.85971609 11.34444763 -5.875 7.875 C-5.89175781 6.99972656 -5.90851562 6.12445313 -5.92578125 5.22265625 C-5.5625 2.8125 -5.5625 2.8125 -4.203125 0.984375 C-2.5625 -0.1875 -2.5625 -0.1875 0 0 Z " fill="#8960A6" transform="translate(586.5625,243.1875)"/>
<path d="M0 0 C1.77007714 -0.08114106 3.54122098 -0.13925505 5.3125 -0.1875 C6.29863281 -0.22230469 7.28476562 -0.25710937 8.30078125 -0.29296875 C11 0 11 0 12.8671875 1.3515625 C14 3 14 3 13.8125 5.5625 C13 8 13 8 11 10 C8.3984375 10.1953125 8.3984375 10.1953125 5.375 10.125 C3.87066406 10.09792969 3.87066406 10.09792969 2.3359375 10.0703125 C1.56507813 10.04710938 0.79421875 10.02390625 0 10 C0 6.7 0 3.4 0 0 Z " fill="#865DA3" transform="translate(410,117)"/>
<path d="M0 0 C-0.33 1.65 -0.66 3.3 -1 5 C-2.98 5.66 -4.96 6.32 -7 7 C-7.33 12.28 -7.66 17.56 -8 23 C-9.32 23 -10.64 23 -12 23 C-12 15.74 -12 8.48 -12 1 C-4.125 -0.125 -4.125 -0.125 0 0 Z " fill="#EDE8F1" transform="translate(168,239)"/>
<path d="M0 0 C1.65 0 3.3 0 5 0 C5 7.26 5 14.52 5 22 C3.35 22 1.7 22 0 22 C0 14.74 0 7.48 0 0 Z " fill="#E4DBEB" transform="translate(346,240)"/>
<path d="M0 0 C3.625 0.375 3.625 0.375 7 1 C7.625 4.375 7.625 4.375 8 8 C6 10 6 10 2.5 10.3125 C0.7675 10.1578125 0.7675 10.1578125 -1 10 C-3 7 -3 7 -2.75 4.4375 C-2 2 -2 2 0 0 Z " fill="#F8F6FA" transform="translate(661,108)"/>
<path d="M0 0 C1.875 1.125 1.875 1.125 3 3 C2.56521739 8.43478261 2.56521739 8.43478261 1 10 C-2.4375 10.1875 -2.4375 10.1875 -6 10 C-6.66 9.34 -7.32 8.68 -8 8 C-7.75 4.4375 -7.75 4.4375 -7 1 C-4.45132831 -0.27433584 -2.82594567 -0.27570202 0 0 Z " fill="#F8F6FA" transform="translate(446,108)"/>
<path d="M0 0 C1.32 0 2.64 0 4 0 C4 7.26 4 14.52 4 22 C2.68 22 1.36 22 0 22 C0 14.74 0 7.48 0 0 Z " fill="#F2EDF5" transform="translate(751,240)"/>
<path d="M0 0 C1.32 0 2.64 0 4 0 C4 7.26 4 14.52 4 22 C2.68 22 1.36 22 0 22 C0 14.74 0 7.48 0 0 Z " fill="#F2EDF5" transform="translate(613,240)"/>
<path d="M0 0 C2 2 2 2 2.25 5 C2 8 2 8 0 10 C-3 10.25 -3 10.25 -6 10 C-8 8 -8 8 -8.3125 5 C-8.209375 4.01 -8.10625 3.02 -8 2 C-4.77626323 -0.14915785 -3.73296326 -0.38286803 0 0 Z " fill="#FCFBFC" transform="translate(568,108)"/>
<path d="M0 0 C1.65 0 3.3 0 5 0 C4.68950274 1.43793392 4.3765224 2.8753318 4.0625 4.3125 C3.88847656 5.11300781 3.71445312 5.91351563 3.53515625 6.73828125 C3 9 3 9 2 12 C1.01 12 0.02 12 -1 12 C-1.02712066 10.56260487 -1.04645067 9.12506137 -1.0625 7.6875 C-1.07410156 6.88699219 -1.08570313 6.08648437 -1.09765625 5.26171875 C-1 3 -1 3 0 0 Z " fill="#E9E2EE" transform="translate(509,257)"/>
<path d="M0 0 C2 2 2 2 2 5 C-1.63 5 -5.26 5 -9 5 C-6.56337092 -1.0915727 -5.97057115 -1.64190707 0 0 Z " fill="#8F69A9" transform="translate(217,244)"/>
<path d="M0 0 C0.825 0.28875 1.65 0.5775 2.5 0.875 C3.16 2.525 3.82 4.175 4.5 5.875 C0.87 5.875 -2.76 5.875 -6.5 5.875 C-4.06862745 -0.20343137 -4.06862745 -0.20343137 0 0 Z " fill="#8E68A9" transform="translate(142.5,243.125)"/>
<path d="M0 0 C-0.3125 2.375 -0.3125 2.375 -1 5 C-4 7 -4 7 -6.6875 6.625 C-7.450625 6.41875 -8.21375 6.2125 -9 6 C-9 4.68 -9 3.36 -9 2 C-5.62902617 0.50178941 -3.79557881 0 0 0 Z " fill="#9069AC" transform="translate(728,252)"/>
<path d="M0 0 C-0.3125 2.375 -0.3125 2.375 -1 5 C-4 7 -4 7 -6.1875 6.625 C-6.785625 6.41875 -7.38375 6.2125 -8 6 C-8.33 4.68 -8.66 3.36 -9 2 C-5.86501708 0.14223235 -3.62528568 -0.20140476 0 0 Z " fill="#8C64A8" transform="translate(543,252)"/>
<path d="M0 0 C3.29714793 0.32971479 4.6226839 0.6226839 7 3 C7 3.99 7 4.98 7 6 C3.7 6 0.4 6 -3 6 C-2 2 -2 2 0 0 Z " fill="#936CAE" transform="translate(894,243)"/>
<path d="M0 0 C3.29714793 0.32971479 4.6226839 0.6226839 7 3 C7 3.99 7 4.98 7 6 C3.7 6 0.4 6 -3 6 C-2 2 -2 2 0 0 Z " fill="#926CAE" transform="translate(850,243)"/>
<path d="M0 0 C3.29714793 0.32971479 4.6226839 0.6226839 7 3 C7 3.99 7 4.98 7 6 C3.7 6 0.4 6 -3 6 C-2 2 -2 2 0 0 Z " fill="#8C66A8" transform="translate(256,243)"/>
<path d="M0 0 C3.29714793 0.32971479 4.6226839 0.6226839 7 3 C7 3.99 7 4.98 7 6 C3.7 6 0.4 6 -3 6 C-2 2 -2 2 0 0 Z " fill="#8B65A7" transform="translate(177,243)"/>
<path d="M0 0 C1.98 0.495 1.98 0.495 4 1 C3.67 2.65 3.34 4.3 3 6 C1.68 5.67 0.36 5.34 -1 5 C-0.67 3.35 -0.34 1.7 0 0 Z " fill="#E5DDEB" transform="translate(347,231)"/>
<path d="M0 0 C1.32 0.66 2.64 1.32 4 2 C3.34 3.32 2.68 4.64 2 6 C0.68 5.34 -0.64 4.68 -2 4 C-1.34 2.68 -0.68 1.36 0 0 Z " fill="#E8E0EE" transform="translate(752,231)"/>
<path d="M0 0 C1.32 0.66 2.64 1.32 4 2 C3.34 3.32 2.68 4.64 2 6 C0.68 5.34 -0.64 4.68 -2 4 C-1.34 2.68 -0.68 1.36 0 0 Z " fill="#E8E0ED" transform="translate(614,231)"/>
</svg>
